<svg width="20" height="21" viewBox="0 0 20 21" fill="none" xmlns="http://www.w3.org/2000/svg">
<g clip-path="url(#clip0_1_2246)">
<path d="M2.25 2.25H3.7725C4.7175 2.25 5.46125 3.06375 5.3825 4L4.65625 12.715C4.53375 14.1412 5.66249 15.3662 7.09749 15.3662H16.4163C17.6763 15.3662 18.7787 14.3338 18.875 13.0825L19.3475 6.52C19.4525 5.0675 18.35 3.88625 16.8887 3.88625H5.59251" stroke="white" stroke-width="1.7" stroke-miterlimit="10" stroke-linecap="round" stroke-linejoin="round"/>
<path d="M14.7188 19.75C15.3228 19.75 15.8125 19.2603 15.8125 18.6562C15.8125 18.0522 15.3228 17.5625 14.7188 17.5625C14.1147 17.5625 13.625 18.0522 13.625 18.6562C13.625 19.2603 14.1147 19.75 14.7188 19.75Z" stroke="white" stroke-width="1.5" stroke-miterlimit="10" stroke-linecap="round" stroke-linejoin="round"/>
<path d="M7.71875 19.75C8.32281 19.75 8.8125 19.2603 8.8125 18.6562C8.8125 18.0522 8.32281 17.5625 7.71875 17.5625C7.11469 17.5625 6.625 18.0522 6.625 18.6562C6.625 19.2603 7.11469 19.75 7.71875 19.75Z" stroke="white" stroke-width="1.5" stroke-miterlimit="10" stroke-linecap="round" stroke-linejoin="round"/>
<path d="M8.375 7.5H18.875" stroke="white" stroke-width="1.7" stroke-miterlimit="10" stroke-linecap="round" stroke-linejoin="round"/>
</g>
<defs>
<clipPath id="clip0_1_2246">
<rect width="20" height="20" fill="white" transform="translate(0 0.5)"/>
</clipPath>
</defs>
</svg>
