<svg width="21" height="21" viewBox="0 0 21 21" fill="none" xmlns="http://www.w3.org/2000/svg">
<g clip-path="url(#clip0_1_2183)">
<g clip-path="url(#clip1_1_2183)">
<path d="M4.35999 0.5H1.35999C0.807701 0.5 0.359985 0.947715 0.359985 1.5V4.5C0.359985 5.05228 0.807701 5.5 1.35999 5.5H4.35999C4.91227 5.5 5.35999 5.05228 5.35999 4.5V1.5C5.35999 0.947715 4.91227 0.5 4.35999 0.5Z" fill="white"/>
<path d="M4.35999 8H1.35999C0.807701 8 0.359985 8.44772 0.359985 9V12C0.359985 12.5523 0.807701 13 1.35999 13H4.35999C4.91227 13 5.35999 12.5523 5.35999 12V9C5.35999 8.44772 4.91227 8 4.35999 8Z" fill="white"/>
<path d="M4.35999 15.5H1.35999C0.807701 15.5 0.359985 15.9477 0.359985 16.5V19.5C0.359985 20.0523 0.807701 20.5 1.35999 20.5H4.35999C4.91227 20.5 5.35999 20.0523 5.35999 19.5V16.5C5.35999 15.9477 4.91227 15.5 4.35999 15.5Z" fill="white"/>
<path d="M11.86 0.5H8.85999C8.3077 0.5 7.85999 0.947715 7.85999 1.5V4.5C7.85999 5.05228 8.3077 5.5 8.85999 5.5H11.86C12.4123 5.5 12.86 5.05228 12.86 4.5V1.5C12.86 0.947715 12.4123 0.5 11.86 0.5Z" fill="white"/>
<path d="M11.86 8H8.85999C8.3077 8 7.85999 8.44772 7.85999 9V12C7.85999 12.5523 8.3077 13 8.85999 13H11.86C12.4123 13 12.86 12.5523 12.86 12V9C12.86 8.44772 12.4123 8 11.86 8Z" fill="white"/>
<path d="M11.86 15.5H8.85999C8.3077 15.5 7.85999 15.9477 7.85999 16.5V19.5C7.85999 20.0523 8.3077 20.5 8.85999 20.5H11.86C12.4123 20.5 12.86 20.0523 12.86 19.5V16.5C12.86 15.9477 12.4123 15.5 11.86 15.5Z" fill="white"/>
<path d="M19.36 0.5H16.36C15.8077 0.5 15.36 0.947715 15.36 1.5V4.5C15.36 5.05228 15.8077 5.5 16.36 5.5H19.36C19.9123 5.5 20.36 5.05228 20.36 4.5V1.5C20.36 0.947715 19.9123 0.5 19.36 0.5Z" fill="white"/>
<path d="M19.36 8H16.36C15.8077 8 15.36 8.44772 15.36 9V12C15.36 12.5523 15.8077 13 16.36 13H19.36C19.9123 13 20.36 12.5523 20.36 12V9C20.36 8.44772 19.9123 8 19.36 8Z" fill="white"/>
<path d="M19.36 15.5H16.36C15.8077 15.5 15.36 15.9477 15.36 16.5V19.5C15.36 20.0523 15.8077 20.5 16.36 20.5H19.36C19.9123 20.5 20.36 20.0523 20.36 19.5V16.5C20.36 15.9477 19.9123 15.5 19.36 15.5Z" fill="white"/>
</g>
</g>
<defs>
<clipPath id="clip0_1_2183">
<rect width="20" height="20" fill="white" transform="translate(0.359985 0.5)"/>
</clipPath>
<clipPath id="clip1_1_2183">
<rect width="20" height="20" fill="white" transform="translate(0.359985 0.5)"/>
</clipPath>
</defs>
</svg>
