<svg width="25" height="24" viewBox="0 0 25 24" fill="none" xmlns="http://www.w3.org/2000/svg">
<g clip-path="url(#clip0_1_2222)">
<path fill-rule="evenodd" clip-rule="evenodd" d="M12.0501 5.552C12.5472 5.552 12.9501 5.95495 12.9501 6.452V21.3366C12.9501 21.8337 12.5472 22.2366 12.0501 22.2366C11.553 22.2366 11.1501 21.8337 11.1501 21.3366V6.452C11.1501 5.95495 11.553 5.552 12.0501 5.552Z" fill="#222D4A"/>
<path fill-rule="evenodd" clip-rule="evenodd" d="M5.37299 22.25C5.37299 21.6977 5.75614 21.25 6.22879 21.25H18.5172C18.9898 21.25 19.373 21.6977 19.373 22.25C19.373 22.8023 18.9898 23.25 18.5172 23.25H6.22879C5.75614 23.25 5.37299 22.8023 5.37299 22.25Z" fill="#222D4A"/>
<path fill-rule="evenodd" clip-rule="evenodd" d="M3.8991 5.50806C3.80415 5.02016 4.12199 4.5441 4.60902 4.44476L9.23501 3.50114C9.72204 3.4018 10.1938 3.71679 10.2888 4.20469C10.3837 4.6926 10.0659 5.16865 9.57885 5.268L4.95286 6.21161C4.46583 6.31096 3.99405 5.99597 3.8991 5.50806Z" fill="#222D4A"/>
<path fill-rule="evenodd" clip-rule="evenodd" d="M13.5912 3.85413C13.4963 3.36623 13.8141 2.89017 14.3011 2.79083L18.9271 1.84721C19.4142 1.74787 19.8859 2.06286 19.9809 2.55076C20.0758 3.03866 19.758 3.51472 19.271 3.61407L14.645 4.55768C14.1579 4.65702 13.6862 4.34203 13.5912 3.85413Z" fill="#222D4A"/>
<path fill-rule="evenodd" clip-rule="evenodd" d="M12.0501 5.06538C12.8006 5.06538 13.4808 4.43053 13.4808 3.55769C13.4808 2.68485 12.8006 2.05 12.0501 2.05C11.2996 2.05 10.6193 2.68485 10.6193 3.55769C10.6193 4.43053 11.2996 5.06538 12.0501 5.06538ZM12.0501 6.86538C13.8344 6.86538 15.2808 5.38448 15.2808 3.55769C15.2808 1.7309 13.8344 0.25 12.0501 0.25C10.2658 0.25 8.81927 1.7309 8.81927 3.55769C8.81927 5.38448 10.2658 6.86538 12.0501 6.86538Z" fill="#222D4A"/>
<path fill-rule="evenodd" clip-rule="evenodd" d="M14.3808 11.8268C14.3808 11.3298 14.7838 10.9268 15.2808 10.9268H22.55C23.0471 10.9268 23.45 11.3298 23.45 11.8268C23.45 12.3239 23.0471 12.7268 22.55 12.7268H15.2808C14.7838 12.7268 14.3808 12.3239 14.3808 11.8268Z" fill="#222D4A"/>
<path fill-rule="evenodd" clip-rule="evenodd" d="M14.8022 12.5891C14.4164 12.2756 14.318 11.6803 14.5823 11.2593L18.2169 5.47085C18.4812 5.0499 19.0082 4.96275 19.394 5.2762C19.7798 5.58965 19.8782 6.185 19.6139 6.60595L15.9793 12.3944C15.715 12.8154 15.188 12.9025 14.8022 12.5891Z" fill="#222D4A"/>
<path fill-rule="evenodd" clip-rule="evenodd" d="M23.0285 12.589C22.6428 12.9025 22.1158 12.8153 21.8514 12.3944L18.2168 6.60593C17.9525 6.18498 18.051 5.58962 18.4367 5.27617C18.8225 4.96272 19.3495 5.04987 19.6138 5.47082L23.2484 11.2593C23.5127 11.6802 23.4143 12.2756 23.0285 12.589Z" fill="#222D4A"/>
<path fill-rule="evenodd" clip-rule="evenodd" d="M15.2808 10.9269C15.7779 10.9269 16.1808 11.3298 16.1808 11.8269C16.1808 13.0787 17.3234 14.2346 18.9154 14.2346C20.5074 14.2346 21.65 13.0787 21.65 11.8269C21.65 11.3298 22.053 10.9269 22.55 10.9269C23.0471 10.9269 23.45 11.3298 23.45 11.8269C23.45 14.2287 21.3381 16.0346 18.9154 16.0346C16.4927 16.0346 14.3808 14.2287 14.3808 11.8269C14.3808 11.3298 14.7838 10.9269 15.2808 10.9269Z" fill="#222D4A"/>
<path fill-rule="evenodd" clip-rule="evenodd" d="M0.650085 14.308C0.650085 13.811 1.05303 13.408 1.55009 13.408H8.81932C9.31638 13.408 9.71932 13.811 9.71932 14.308C9.71932 14.8051 9.31638 15.208 8.81932 15.208H1.55009C1.05303 15.208 0.650085 14.8051 0.650085 14.308Z" fill="#222D4A"/>
<path fill-rule="evenodd" clip-rule="evenodd" d="M1.07145 15.0703C0.685692 14.7568 0.587241 14.1615 0.85156 13.7405L4.48617 7.95205C4.75049 7.5311 5.27749 7.44395 5.66325 7.7574C6.04902 8.07085 6.14747 8.6662 5.88315 9.08715L2.24853 14.8756C1.98421 15.2966 1.45722 15.3837 1.07145 15.0703Z" fill="#222D4A"/>
<path fill-rule="evenodd" clip-rule="evenodd" d="M9.29777 15.0702C8.91201 15.3837 8.38501 15.2965 8.12069 14.8756L4.48608 9.08713C4.22176 8.66618 4.32021 8.07083 4.70597 7.75738C5.09174 7.44392 5.61873 7.53107 5.88305 7.95202L9.51767 13.7405C9.78199 14.1614 9.68354 14.7568 9.29777 15.0702Z" fill="#222D4A"/>
<path fill-rule="evenodd" clip-rule="evenodd" d="M1.55009 13.4081C2.04714 13.4081 2.45009 13.811 2.45009 14.3081C2.45009 15.5599 3.59271 16.7158 5.1847 16.7158C6.7767 16.7158 7.91932 15.5599 7.91932 14.3081C7.91932 13.811 8.32226 13.4081 8.81932 13.4081C9.31637 13.4081 9.71932 13.811 9.71932 14.3081C9.71932 16.7099 7.6074 18.5158 5.1847 18.5158C2.76201 18.5158 0.650085 16.7099 0.650085 14.3081C0.650085 13.811 1.05303 13.4081 1.55009 13.4081Z" fill="#222D4A"/>
</g>
<defs>
<clipPath id="clip0_1_2222">
<rect width="24" height="23" fill="white" transform="translate(0.0499878 0.25)"/>
</clipPath>
</defs>
</svg>
