<svg width="25" height="24" viewBox="0 0 25 24" fill="none" xmlns="http://www.w3.org/2000/svg">
<g clip-path="url(#clip0_1_2240)">
<path fill-rule="evenodd" clip-rule="evenodd" d="M7.55605 2.15C4.76953 2.15 2.39005 4.60578 2.39005 7.79494C2.39005 11.6309 4.04097 14.6953 6.10542 16.9639C8.18277 19.2467 10.6332 20.6703 12.0847 21.2017L12.0944 21.2053C12.141 21.223 12.266 21.25 12.44 21.25C12.6141 21.25 12.7391 21.223 12.7857 21.2053L12.7954 21.2017C14.2469 20.6703 16.6973 19.2467 18.7747 16.9639C20.8391 14.6953 22.4901 11.6309 22.4901 7.79494C22.4901 4.60578 20.1106 2.15 17.3241 2.15C15.6755 2.15 14.1729 3.00896 13.2211 4.38351C13.0436 4.63978 12.7518 4.7927 12.44 4.7927C12.1283 4.7927 11.8365 4.63978 11.659 4.38351C10.7066 3.0081 9.21467 2.15 7.55605 2.15ZM0.490051 7.79494C0.490051 3.69309 3.58856 0.25 7.55605 0.25C9.4681 0.25 11.1839 1.05971 12.4405 2.35239C13.7 1.05927 15.4216 0.25 17.3241 0.25C21.2915 0.25 24.3901 3.69309 24.3901 7.79494C24.3901 12.2174 22.477 15.7185 20.1799 18.2427C17.8976 20.7507 15.1915 22.3468 13.4528 22.9844C13.1268 23.1067 12.7592 23.15 12.44 23.15C12.1209 23.15 11.7533 23.1067 11.4272 22.9844C9.6886 22.3468 6.9825 20.7507 4.70018 18.2427C2.40313 15.7185 0.490051 12.2174 0.490051 7.79494Z" fill="#222D4A"/>
</g>
<defs>
<clipPath id="clip0_1_2240">
<rect width="24" height="23" fill="white" transform="translate(0.440002 0.25)"/>
</clipPath>
</defs>
</svg>
