<svg width="25" height="25" viewBox="0 0 25 25" fill="none" xmlns="http://www.w3.org/2000/svg">
<g clip-path="url(#clip0_1_2204)">
<g clip-path="url(#clip1_1_2204)">
<path d="M11.7031 20.7888C9.63391 20.79 7.64906 19.9691 6.18514 18.5068C4.72121 17.0445 3.89813 15.0606 3.89697 12.9915C3.89686 12.7845 3.97894 12.5861 4.12517 12.4397C4.2714 12.2933 4.46979 12.2109 4.6767 12.2108C4.88362 12.2107 5.0821 12.2928 5.2285 12.439C5.37489 12.5852 5.4572 12.7837 5.45732 12.9906C5.45824 14.6459 6.1167 16.2331 7.28784 17.4029C8.45898 18.5727 10.0469 19.2294 11.7022 19.2284C13.3575 19.2275 14.9447 18.569 16.1144 17.3979C17.2843 16.2268 17.9409 14.6389 17.9401 12.9835C17.94 12.7767 18.022 12.5781 18.1682 12.4318C18.3145 12.2854 18.5129 12.2031 18.7198 12.203C18.9266 12.2029 19.1252 12.285 19.2716 12.4312C19.418 12.5774 19.5002 12.7758 19.5003 12.9827C19.5015 15.0519 18.6807 17.0367 17.2184 18.5007C15.7561 19.9646 13.7722 20.7876 11.7031 20.7888Z" fill="#222D4A"/>
<path d="M11.7048 23.9095C11.4979 23.9096 11.2994 23.8275 11.1531 23.6813C11.0067 23.5351 10.9244 23.3367 10.9242 23.1298L10.9225 20.0091C10.9224 19.8022 11.0045 19.6037 11.1507 19.4573C11.2969 19.3109 11.4953 19.2286 11.7022 19.2285C11.9091 19.2284 12.1076 19.3104 12.254 19.4566C12.4004 19.6029 12.4827 19.8013 12.4828 20.0082L12.4846 23.1288C12.4847 23.3358 12.4026 23.5342 12.2564 23.6806C12.1101 23.827 11.9118 23.9094 11.7048 23.9095Z" fill="#222D4A"/>
<path d="M11.7013 17.6681C10.4599 17.6688 9.26894 17.1763 8.39059 16.2989C7.51223 15.4216 7.01838 14.2312 7.01769 12.9897L7.01331 5.18803C7.01261 3.94654 7.50511 2.75563 8.38249 1.87728C9.25986 0.998923 10.4502 0.505077 11.6917 0.50438C12.9332 0.503683 14.1241 0.996192 15.0025 1.87356C15.8808 2.75093 16.3747 3.94129 16.3754 5.18277L16.3798 12.9844C16.3804 14.226 15.888 15.4169 15.0105 16.2952C14.1332 17.1736 12.9428 17.6674 11.7013 17.6681ZM11.6926 2.06472C10.8649 2.06518 10.0713 2.39441 9.48643 2.97998C8.90152 3.56556 8.57318 4.3595 8.57364 5.18715L8.57803 12.9888C8.57849 13.8166 8.90772 14.6101 9.49329 15.195C10.0789 15.7799 10.8728 16.1083 11.7005 16.1078C12.5281 16.1073 13.3217 15.7781 13.9066 15.1925C14.4915 14.6069 14.8199 13.813 14.8194 12.9854L14.815 5.18365C14.8146 4.35599 14.4853 3.56242 13.8997 2.97751C13.3142 2.39259 12.5202 2.06425 11.6926 2.06472Z" fill="#222D4A"/>
</g>
</g>
<defs>
<clipPath id="clip0_1_2204">
<rect width="24" height="24" fill="white" transform="translate(0.0499878 0.5)"/>
</clipPath>
<clipPath id="clip1_1_2204">
<rect width="16.32" height="24" fill="white" transform="translate(3.88998 0.5)"/>
</clipPath>
</defs>
</svg>
