<svg width="24" height="25" viewBox="0 0 24 25" fill="none" xmlns="http://www.w3.org/2000/svg">
<g clip-path="url(#clip0_1_2214)">
<path fill-rule="evenodd" clip-rule="evenodd" d="M1.98958 12.5001C1.98958 7.19816 6.28765 2.9001 11.5896 2.9001C16.8915 2.9001 21.1896 7.19816 21.1896 12.5001C21.1896 14.9167 20.2967 17.1247 18.8228 18.8123C18.5316 17.7531 17.8971 16.7695 16.966 15.9778L16.9641 15.9762C14.0042 13.4737 9.19413 13.4765 6.21832 15.9741L6.21393 15.9778C5.32634 16.7325 4.59582 17.6616 4.2298 18.6644C2.83152 16.9966 1.98958 14.8467 1.98958 12.5001ZM11.5896 22.1001C9.37365 22.1001 7.33307 21.3493 5.70835 20.0882C6.01107 19.2264 6.74435 17.8901 7.37773 17.351C9.6867 15.4151 13.5151 15.4182 15.801 17.3499C16.4349 17.8893 17.1684 19.2258 17.4712 20.0879C15.8465 21.3492 13.8057 22.1001 11.5896 22.1001ZM11.5896 1.1001C5.29353 1.1001 0.189575 6.20405 0.189575 12.5001C0.189575 18.7961 5.29353 23.9001 11.5896 23.9001C17.8857 23.9001 22.9896 18.7961 22.9896 12.5001C22.9896 6.20405 17.8857 1.1001 11.5896 1.1001ZM11.5896 5.9001C10.1477 5.9001 8.98958 7.06506 8.98958 8.50544C8.98958 9.89325 10.0698 11.023 11.4375 11.0982C11.5364 11.0904 11.6416 11.0897 11.7446 11.098C13.1055 11.0216 14.1804 9.89691 14.1896 8.50291C14.1882 7.06548 13.0218 5.9001 11.5896 5.9001ZM7.18958 8.50544C7.18958 6.07712 9.14737 4.1001 11.5896 4.1001C14.0194 4.1001 15.9896 6.07533 15.9896 8.50544V8.51052C15.9762 10.8789 14.1156 12.8188 11.7484 12.8996C11.6984 12.9013 11.6483 12.8988 11.5987 12.8922L11.5936 12.8921C11.5896 12.8921 11.5853 12.8922 11.5812 12.8925L11.576 12.8928L11.5734 12.8931C11.5261 12.899 11.4784 12.9012 11.4308 12.8996C9.06816 12.8189 7.18958 10.8824 7.18958 8.50544Z" fill="#222D4A"/>
</g>
<defs>
<clipPath id="clip0_1_2214">
<rect width="23" height="24" fill="white" transform="translate(0.0899658 0.5)"/>
</clipPath>
</defs>
</svg>
