<svg width="20" height="19" viewBox="0 0 20 19" fill="none" xmlns="http://www.w3.org/2000/svg">
<g clip-path="url(#clip0_1_2202)">
<path d="M8.04999 16C9.82497 15.9996 11.5488 15.4054 12.947 14.312L17.343 18.708L18.757 17.294L14.361 12.898C15.455 11.4997 16.0496 9.77544 16.05 8C16.05 3.589 12.461 0 8.04999 0C3.63899 0 0.0499878 3.589 0.0499878 8C0.0499878 12.411 3.63899 16 8.04999 16ZM8.04999 2C11.359 2 14.05 4.691 14.05 8C14.05 11.309 11.359 14 8.04999 14C4.74099 14 2.04999 11.309 2.04999 8C2.04999 4.691 4.74099 2 8.04999 2Z" fill="#222D4A"/>
</g>
<defs>
<clipPath id="clip0_1_2202">
<rect width="19" height="19" fill="white" transform="translate(0.0499878)"/>
</clipPath>
</defs>
</svg>
